<?xml version="1.0" standalone="no"?>
<!DOCTYPE svg PUBLIC "-//W3C//DTD SVG 20010904//EN"
 "http://www.w3.org/TR/2001/REC-SVG-20010904/DTD/svg10.dtd">
<svg version="1.0" xmlns="http://www.w3.org/2000/svg"
 width="200.000000pt" height="200.000000pt" viewBox="0 0 200.000000 200.000000"
 preserveAspectRatio="xMidYMid meet">

<g transform="translate(0.000000,200.000000) scale(0.100000,-0.100000)"
fill="#000000" stroke="none">
<path d="M920 1930 c0 -13 7 -20 20 -20 13 0 20 7 20 20 0 13 -7 20 -20 20
-13 0 -20 -7 -20 -20z"/>
<path d="M1050 1900 c0 -13 7 -20 20 -20 13 0 20 7 20 20 0 13 -7 20 -20 20
-13 0 -20 -7 -20 -20z"/>
<path d="M725 1890 c-4 -7 -3 -16 3 -22 14 -14 45 -2 40 15 -6 16 -34 21 -43
7z"/>
<path d="M850 1880 c0 -13 7 -20 20 -20 13 0 20 7 20 20 0 13 -7 20 -20 20
-13 0 -20 -7 -20 -20z"/>
<path d="M1250 1880 c0 -13 7 -20 20 -20 13 0 20 7 20 20 0 13 -7 20 -20 20
-13 0 -20 -7 -20 -20z"/>
<path d="M970 1860 c0 -16 5 -21 23 -18 12 2 22 10 22 18 0 8 -10 16 -22 18
-18 3 -23 -2 -23 -18z"/>
<path d="M1164 1869 c-3 -6 0 -17 7 -25 18 -17 44 -2 36 20 -7 18 -33 21 -43
5z"/>
<path d="M1087 1836 c-8 -20 20 -43 35 -28 14 14 3 42 -16 42 -7 0 -16 -6 -19
-14z"/>
<path d="M664 1825 c-4 -9 -2 -21 4 -27 15 -15 44 -1 40 19 -4 23 -36 29 -44
8z"/>
<path d="M782 1823 c4 -22 43 -25 43 -3 0 8 -11 16 -23 18 -19 3 -23 0 -20
-15z"/>
<path d="M911 1830 c-17 -10 -7 -40 13 -40 7 0 16 6 19 14 8 19 -15 37 -32 26z"/>
<path d="M1355 1820 c-9 -15 4 -30 26 -30 12 0 19 7 19 20 0 21 -33 29 -45 10z"/>
<path d="M1272 1798 c2 -13 10 -23 18 -23 8 0 16 10 18 23 3 17 -2 22 -18 22
-16 0 -21 -5 -18 -22z"/>
<path d="M545 1800 c-4 -7 -3 -16 3 -22 14 -14 45 -2 40 15 -6 16 -34 21 -43
7z"/>
<path d="M1014 1795 c-7 -18 3 -35 21 -35 15 0 28 27 19 41 -8 14 -34 11 -40
-6z"/>
<path d="M1193 1784 c-8 -21 13 -42 28 -27 13 13 5 43 -11 43 -6 0 -13 -7 -17
-16z"/>
<path d="M730 1760 c0 -13 7 -20 20 -20 13 0 20 7 20 20 0 13 -7 20 -20 20
-13 0 -20 -7 -20 -20z"/>
<path d="M843 1764 c-7 -18 11 -39 26 -30 17 11 13 46 -4 46 -9 0 -18 -7 -22
-16z"/>
<path d="M424 1755 c-8 -19 12 -36 33 -28 19 7 12 37 -10 41 -9 2 -20 -4 -23
-13z"/>
<path d="M614 1759 c-3 -6 0 -17 7 -25 18 -17 44 -2 36 20 -7 18 -33 21 -43 5z"/>
<path d="M1121 1757 c-14 -17 3 -41 23 -34 9 4 16 13 16 21 0 19 -26 28 -39
13z"/>
<path d="M947 1746 c-8 -20 20 -43 35 -28 14 14 3 42 -16 42 -7 0 -16 -6 -19
-14z"/>
<path d="M1364 1735 c-8 -19 12 -36 33 -28 19 7 12 37 -10 41 -9 2 -20 -4 -23
-13z"/>
<path d="M1450 1730 c0 -13 7 -20 20 -20 13 0 20 7 20 20 0 13 -7 20 -20 20
-13 0 -20 -7 -20 -20z"/>
<path d="M1522 1725 c0 -16 2 -22 5 -12 2 9 2 23 0 30 -3 6 -5 -1 -5 -18z"/>
<path d="M503 1724 c-8 -21 13 -42 28 -27 13 13 5 43 -11 43 -6 0 -13 -7 -17
-16z"/>
<path d="M1282 1713 c4 -22 43 -25 43 -3 0 8 -11 16 -23 18 -19 3 -23 0 -20
-15z"/>
<path d="M793 1704 c-7 -19 11 -39 26 -30 16 10 13 33 -4 40 -9 3 -18 -1 -22
-10z"/>
<path d="M1046 1712 c-9 -14 12 -35 28 -29 23 9 20 37 -3 37 -11 0 -22 -4 -25
-8z"/>
<path d="M685 1700 c-4 -7 -3 -16 3 -22 14 -14 45 -2 40 15 -6 16 -34 21 -43
7z"/>
<path d="M1204 1699 c-3 -6 0 -17 7 -25 18 -17 44 -2 36 20 -7 18 -33 21 -43
5z"/>
<path d="M581 1687 c-14 -17 3 -41 23 -34 9 4 16 13 16 21 0 19 -26 28 -39 13z"/>
<path d="M897 1693 c-14 -13 -6 -33 13 -33 13 0 20 7 20 20 0 19 -20 27 -33
13z"/>
<path d="M393 1674 c-8 -21 13 -42 28 -27 13 13 5 43 -11 43 -6 0 -13 -7 -17
-16z"/>
<path d="M984 1659 c-3 -6 0 -17 7 -25 18 -17 44 -2 36 20 -7 18 -33 21 -43 5z"/>
<path d="M1134 1659 c-9 -15 12 -33 30 -26 9 4 16 13 16 22 0 17 -35 21 -46 4z"/>
<path d="M1542 1663 c20 -3 28 -11 31 -31 4 -24 4 -24 6 6 1 30 -1 32 -31 31
-30 -2 -30 -2 -6 -6z"/>
<path d="M472 1638 c2 -13 10 -23 18 -23 8 0 16 10 18 23 3 17 -2 22 -18 22
-16 0 -21 -5 -18 -22z"/>
<path d="M1363 1644 c-3 -8 -1 -20 6 -27 14 -14 47 15 37 32 -10 16 -36 13
-43 -5z"/>
<path d="M754 1636 c-7 -19 3 -36 22 -36 10 0 14 8 12 22 -4 26 -26 36 -34 14z"/>
<path d="M1291 1636 c-14 -17 -7 -36 14 -36 22 0 29 20 13 36 -13 13 -16 13
-27 0z"/>
<path d="M1601 1623 c-1 -31 1 -33 32 -32 29 2 29 2 5 6 -20 3 -28 11 -31 31
-4 24 -4 24 -6 -5z"/>
<path d="M650 1620 c0 -13 7 -20 20 -20 13 0 20 7 20 20 0 13 -7 20 -20 20
-13 0 -20 -7 -20 -20z"/>
<path d="M851 1626 c-14 -17 -7 -36 14 -36 22 0 29 20 13 36 -13 13 -16 13
-27 0z"/>
<path d="M1073 1614 c-8 -21 13 -42 28 -27 13 13 5 43 -11 43 -6 0 -13 -7 -17
-16z"/>
<path d="M284 1609 c-3 -6 0 -17 8 -25 13 -13 16 -13 27 0 7 8 10 20 6 26 -8
13 -32 13 -41 -1z"/>
<path d="M550 1601 c0 -26 17 -36 35 -21 18 15 8 40 -16 40 -12 0 -19 -7 -19
-19z"/>
<path d="M1453 1613 c9 -2 23 -2 30 0 6 3 -1 5 -18 5 -16 0 -22 -2 -12 -5z"/>
<path d="M1683 1596 c1 -17 9 -31 17 -33 10 -3 11 -2 4 4 -7 4 -14 19 -17 33
-4 22 -5 21 -4 -4z"/>
<path d="M367 1597 c-3 -8 -2 -20 3 -27 11 -18 42 -4 38 17 -4 22 -34 29 -41
10z"/>
<path d="M934 1595 c-4 -9 -2 -21 4 -27 15 -15 44 -1 40 19 -4 23 -36 29 -44
8z"/>
<path d="M1210 1590 c0 -13 7 -20 20 -20 13 0 20 7 20 20 0 13 -7 20 -20 20
-13 0 -20 -7 -20 -20z"/>
<path d="M1438 1583 c6 -2 18 -2 25 0 6 3 1 5 -13 5 -14 0 -19 -2 -12 -5z"/>
<path d="M1518 1583 c6 -2 18 -2 25 0 6 3 1 5 -13 5 -14 0 -19 -2 -12 -5z"/>
<path d="M457 1574 c-14 -15 -6 -34 14 -34 14 0 19 5 17 17 -3 18 -20 27 -31
17z"/>
<path d="M720 1550 c0 -16 5 -21 23 -18 12 2 22 10 22 18 0 8 -10 16 -22 18
-18 3 -23 -2 -23 -18z"/>
<path d="M1017 1563 c-11 -11 -8 -31 6 -36 21 -8 39 7 31 26 -6 17 -25 22 -37
10z"/>
<path d="M1140 1550 c0 -16 5 -21 23 -18 12 2 22 10 22 18 0 8 -10 16 -22 18
-18 3 -23 -2 -23 -18z"/>
<path d="M1342 1543 c2 -22 9 -29 31 -31 24 -3 27 0 27 27 0 28 -3 31 -31 31
-27 0 -30 -3 -27 -27z"/>
<path d="M1580 1566 c0 -2 14 -6 30 -8 17 -3 30 -1 30 4 0 4 -13 8 -30 8 -16
0 -30 -2 -30 -4z"/>
<path d="M626 1552 c-9 -14 12 -35 28 -29 23 9 20 37 -3 37 -11 0 -22 -4 -25
-8z"/>
<path d="M810 1540 c0 -13 7 -20 20 -20 13 0 20 7 20 20 0 13 -7 20 -20 20
-13 0 -20 -7 -20 -20z"/>
<path d="M1262 1523 c2 -22 9 -29 31 -31 24 -3 27 0 27 27 0 28 -3 31 -31 31
-27 0 -30 -3 -27 -27z"/>
<path d="M273 1524 c-8 -21 13 -42 28 -27 13 13 5 43 -11 43 -6 0 -13 -7 -17
-16z"/>
<path d="M535 1530 c-7 -12 3 -50 13 -50 12 0 33 40 27 50 -8 13 -32 13 -40 0z"/>
<path d="M894 1525 c-8 -21 10 -39 30 -32 22 9 20 24 -4 37 -16 9 -22 8 -26
-5z"/>
<path d="M355 1510 c-4 -7 -3 -16 3 -22 14 -14 45 -2 40 15 -6 16 -34 21 -43
7z"/>
<path d="M1072 1493 c2 -20 9 -29 26 -31 17 -3 22 -10 22 -33 0 -26 3 -29 30
-29 27 0 30 3 30 30 0 25 -4 30 -25 30 -21 0 -25 5 -25 30 0 27 -3 30 -31 30
-27 0 -30 -3 -27 -27z m86 -50 c-9 -2 -19 -12 -21 -21 -3 -12 -5 -10 -6 6 -1
17 4 22 22 21 15 -1 17 -3 5 -6z"/>
<path d="M1192 1483 c2 -22 9 -29 31 -31 24 -3 27 0 27 27 0 28 -3 31 -31 31
-27 0 -30 -3 -27 -27z"/>
<path d="M444 1485 c-9 -21 16 -51 27 -33 14 21 10 48 -6 48 -9 0 -18 -7 -21
-15z"/>
<path d="M972 1487 c-15 -17 1 -42 23 -33 18 6 17 37 -1 43 -6 2 -16 -2 -22
-10z"/>
<path d="M1497 1493 c14 -3 23 -13 26 -29 4 -21 4 -21 3 3 -1 23 -6 28 -26 29
-20 1 -21 0 -3 -3z"/>
<path d="M1792 1475 c0 -16 2 -22 5 -12 2 9 2 23 0 30 -3 6 -5 -1 -5 -18z"/>
<path d="M190 1480 c0 -6 7 -10 15 -10 8 0 15 2 15 4 0 2 -7 6 -15 10 -8 3
-15 1 -15 -4z"/>
<path d="M626 1483 c-14 -15 -5 -43 14 -43 13 0 20 7 20 19 0 19 -23 35 -34
24z"/>
<path d="M707 1476 c-8 -19 15 -37 32 -26 17 10 7 40 -13 40 -7 0 -16 -6 -19
-14z"/>
<path d="M1392 1460 c2 -27 6 -31 28 -28 19 2 25 9 25 28 0 20 -6 26 -28 28
-25 3 -27 1 -25 -28z"/>
<path d="M790 1460 c0 -13 7 -20 20 -20 13 0 20 7 20 20 0 13 -7 20 -20 20
-13 0 -20 -7 -20 -20z"/>
<path d="M351 1444 c-16 -20 -18 -30 -10 -40 6 -8 16 -11 21 -8 6 4 14 1 18
-6 6 -9 11 -7 20 9 13 25 -3 56 -23 44 -6 -4 -8 0 -4 10 9 24 2 21 -22 -9z"/>
<path d="M519 1454 c-7 -9 -6 -20 6 -38 10 -15 14 -33 10 -46 -7 -22 11 -53
26 -44 12 7 11 -13 -1 -35 -7 -14 -4 -23 15 -41 l23 -22 18 26 c16 26 17 26
36 9 19 -17 21 -17 39 6 l19 23 21 -26 c17 -21 24 -24 35 -15 9 7 12 20 9 33
-5 17 -4 18 4 6 6 -8 11 -10 11 -4 0 25 -41 37 -68 20 -9 -5 -18 -1 -27 10 -9
11 -14 14 -15 7 0 -7 -5 -13 -11 -13 -7 0 -9 8 -4 23 3 12 7 28 7 35 2 19 18
14 40 -10 11 -13 16 -17 13 -10 -5 9 -1 12 11 10 14 -2 19 4 20 22 2 33 -6 46
-18 29 -8 -11 -11 -12 -15 -1 -4 10 -8 9 -17 -4 -9 -11 -18 -14 -27 -9 -22 14
-48 13 -61 -2 -9 -11 -6 -20 10 -42 18 -24 19 -31 8 -46 -9 -12 -15 -14 -20
-7 -4 6 -13 9 -21 5 -8 -3 -15 0 -15 6 0 6 4 11 8 11 13 0 8 48 -6 62 -7 7
-12 9 -12 4 0 -4 -7 -1 -15 8 -18 18 -20 33 -2 18 17 -15 44 25 28 41 -15 15
-50 16 -62 1z"/>
<path d="M1310 1439 c0 -27 3 -30 28 -27 21 2 28 9 30 31 3 24 0 27 -27 27
-28 0 -31 -3 -31 -31z"/>
<path d="M1601 1444 c0 -11 3 -14 6 -6 3 7 2 16 -1 19 -3 4 -6 -2 -5 -13z"/>
<path d="M1681 1438 c-1 -21 -7 -28 -28 -31 l-28 -4 28 -2 c29 -1 42 15 34 46
-3 12 -5 9 -6 -9z"/>
<path d="M220 1446 c0 -2 8 -10 18 -17 15 -13 16 -12 3 4 -13 16 -21 21 -21
13z"/>
<path d="M870 1430 c0 -13 7 -20 20 -20 13 0 20 7 20 20 0 13 -7 20 -20 20
-13 0 -20 -7 -20 -20z"/>
<path d="M1022 1423 c2 -22 9 -29 31 -31 26 -3 28 -1 25 25 -2 22 -9 29 -31
31 -26 3 -28 1 -25 -25z m35 11 c-3 -3 -12 -4 -19 -1 -8 3 -5 6 6 6 11 1 17
-2 13 -5z"/>
<path d="M1230 1410 c0 -27 3 -30 30 -30 27 0 30 3 30 30 0 27 -3 30 -30 30
-27 0 -30 -3 -30 -30z"/>
<path d="M439 1413 c-9 -10 -10 -20 -3 -31 15 -23 52 -23 60 1 11 34 -34 58
-57 30z"/>
<path d="M1750 1406 c0 -19 -6 -26 -27 -29 -26 -4 -26 -4 5 -6 29 -1 32 2 32
29 0 17 -2 30 -5 30 -3 0 -5 -11 -5 -24z"/>
<path d="M934 1395 c-4 -10 -1 -21 7 -26 20 -12 34 -5 34 17 0 24 -33 31 -41
9z"/>
<path d="M1433 1403 c-7 -2 -13 -18 -13 -34 0 -27 3 -30 28 -27 20 2 28 9 30
27 5 31 -16 46 -45 34z"/>
<path d="M200 1390 c-8 -5 -12 -12 -9 -15 4 -3 12 1 19 10 14 17 11 19 -10 5z"/>
<path d="M784 1388 c-3 -4 -10 -5 -17 -1 -6 3 -2 -8 9 -27 10 -18 26 -35 34
-37 12 -4 12 -3 2 5 -11 7 -9 11 8 15 30 8 24 50 -8 52 -13 1 -25 -2 -28 -7z"/>
<path d="M1160 1361 c0 -28 3 -31 31 -31 27 0 30 3 27 28 -2 21 -9 28 -30 30
-25 3 -28 0 -28 -27z m47 -13 c-3 -8 -6 -5 -6 6 -1 11 2 17 5 13 3 -3 4 -12 1
-19z"/>
<path d="M1340 1359 c0 -27 3 -30 28 -27 21 2 28 9 30 31 3 24 0 27 -27 27
-28 0 -31 -3 -31 -31z"/>
<path d="M1580 1386 c0 -2 13 -6 29 -8 17 -2 28 -1 25 4 -5 8 -54 12 -54 4z"/>
<path d="M354 1354 c-4 -17 -1 -31 10 -42 12 -13 16 -13 16 -2 0 7 2 11 5 8 3
-3 1 -17 -6 -31 -10 -21 -8 -30 10 -55 11 -17 21 -37 21 -44 0 -8 9 -23 19
-32 19 -17 20 -17 36 8 16 24 16 28 1 51 -19 29 -28 32 -20 8 5 -14 4 -15 -4
-4 -7 9 -12 10 -16 2 -9 -13 -26 -5 -26 12 0 7 4 7 9 -2 8 -12 12 -10 22 12 9
21 9 30 -1 42 -7 8 -16 12 -21 9 -5 -3 -4 7 1 21 12 32 -6 78 -21 54 -6 -10
-9 -11 -9 -1 0 22 -20 12 -26 -14z"/>
<path d="M1060 1350 c0 -27 3 -30 30 -30 27 0 30 3 30 30 0 27 -3 30 -30 30
-27 0 -30 -3 -30 -30z"/>
<path d="M852 1354 c-14 -26 3 -55 25 -47 12 5 14 3 9 -8 -4 -8 2 -3 13 10 16
18 19 27 10 37 -6 8 -16 11 -21 8 -6 -4 -14 -1 -18 6 -6 9 -10 8 -18 -6z"/>
<path d="M457 1340 c-18 -26 -10 -44 23 -53 26 -7 47 28 30 49 -7 7 -16 12
-20 9 -5 -3 -10 0 -12 7 -3 7 -11 2 -21 -12z"/>
<path d="M1252 1330 c4 -33 52 -42 60 -12 8 29 -5 42 -36 40 -22 -2 -26 -7
-24 -28z"/>
<path d="M980 1319 c0 -27 3 -30 28 -27 21 2 28 9 30 31 3 24 0 27 -27 27 -28
0 -31 -3 -31 -31z"/>
<path d="M1842 1305 c0 -16 2 -22 5 -12 2 9 2 23 0 30 -3 6 -5 -1 -5 -18z"/>
<path d="M1784 1264 c1 -34 4 -60 9 -57 4 2 7 15 7 28 0 18 6 25 28 28 26 4
25 4 -5 6 -26 1 -32 6 -36 29 -2 15 -4 -1 -3 -34z"/>
<path d="M194 1290 c0 -13 4 -16 10 -10 7 7 7 13 0 20 -6 6 -10 3 -10 -10z"/>
<path d="M910 1290 c-6 -12 -8 -30 -4 -42 5 -16 3 -20 -10 -15 -28 11 -37 -24
-14 -56 11 -15 17 -31 14 -35 -4 -3 -11 0 -15 7 -7 11 -12 9 -21 -9 -7 -12 -8
-20 -2 -16 5 3 9 -2 8 -11 -1 -21 42 -25 54 -4 5 10 3 26 -6 43 -11 22 -12 28
-2 26 7 -2 12 5 12 15 -1 9 3 17 8 17 6 0 8 7 4 15 -3 10 1 15 13 15 22 0 32
30 19 54 -13 22 -45 20 -58 -4z"/>
<path d="M1170 1280 c0 -27 3 -30 30 -30 27 0 30 3 30 30 0 27 -3 30 -30 30
-27 0 -30 -3 -30 -30z"/>
<path d="M1350 1280 c0 -27 3 -30 30 -30 27 0 30 3 30 30 0 27 -3 30 -30 30
-27 0 -30 -3 -30 -30z m38 13 c-9 -2 -19 -12 -21 -21 -3 -12 -5 -10 -6 6 -1
17 4 22 22 21 15 -1 17 -3 5 -6z"/>
<path d="M1572 1280 c0 -19 2 -27 5 -17 2 9 2 25 0 35 -3 9 -5 1 -5 -18z"/>
<path d="M802 1279 c-9 -14 -9 -25 -2 -39 14 -25 13 -33 -3 -27 -7 3 -18 -3
-24 -12 -13 -21 5 -50 27 -44 11 3 12 2 3 -4 -24 -17 -26 -67 -5 -86 19 -17
20 -17 36 7 18 28 21 40 7 32 -5 -3 -8 2 -7 12 0 9 -5 16 -12 14 -9 -2 -9 5 3
28 11 22 13 35 5 49 -14 27 -13 34 5 27 22 -8 39 29 20 44 -8 7 -15 9 -15 5 0
-4 -6 -3 -13 3 -10 8 -16 6 -25 -9z m18 -209 c0 -5 -2 -10 -4 -10 -3 0 -8 5
-11 10 -3 6 -1 10 4 10 6 0 11 -4 11 -10z"/>
<path d="M1090 1270 c0 -27 3 -30 30 -30 27 0 30 3 30 30 0 27 -3 30 -30 30
-27 0 -30 -3 -30 -30z m43 -17 c-7 -2 -19 -2 -25 0 -7 3 -2 5 12 5 14 0 19 -2
13 -5z"/>
<path d="M120 1280 c0 -5 7 -7 15 -4 8 4 15 8 15 10 0 2 -7 4 -15 4 -8 0 -15
-4 -15 -10z"/>
<path d="M505 1280 c-3 -5 -10 -8 -14 -6 -15 10 -4 -56 13 -72 16 -16 17 -16
10 1 -5 14 -2 18 12 15 13 -2 20 4 22 18 3 24 -32 61 -43 44z"/>
<path d="M1594 1276 c-3 -8 -4 -23 -1 -33 3 -12 5 -9 6 9 1 21 7 28 29 31 l27
4 -28 2 c-16 0 -30 -5 -33 -13z"/>
<path d="M1260 1250 c0 -27 3 -30 30 -30 27 0 30 3 30 30 0 27 -3 30 -30 30
-27 0 -30 -3 -30 -30z m43 -17 c-7 -2 -19 -2 -25 0 -7 3 -2 5 12 5 14 0 19 -2
13 -5z"/>
<path d="M1010 1246 c0 -19 -6 -25 -27 -28 -29 -3 -40 -26 -27 -56 14 -32 12
-42 -7 -42 -10 0 -20 -6 -20 -12 -2 -24 3 -43 14 -50 9 -6 9 -10 -1 -16 -7 -5
-14 -19 -15 -30 -1 -16 -6 -20 -18 -17 -10 3 -20 1 -24 -5 -3 -6 -10 -8 -14
-5 -9 5 -6 -38 3 -54 4 -6 14 -8 24 -5 14 5 15 4 2 -5 -8 -6 -10 -11 -4 -11
20 0 47 38 40 57 -6 15 -3 14 15 -4 16 -16 20 -28 15 -48 -5 -19 -10 -24 -19
-17 -18 15 -47 -10 -47 -42 0 -22 8 -30 30 -28 3 0 7 -13 8 -30 3 -42 31 -62
55 -41 23 21 22 46 -3 68 -24 21 -29 65 -6 46 11 -9 19 -9 35 1 18 11 20 19
15 68 -5 42 -12 61 -33 81 -25 23 -26 27 -13 47 13 19 12 25 -1 46 -17 25 -13
36 10 36 8 0 11 -5 8 -10 -4 -6 0 -22 9 -35 14 -21 14 -28 4 -45 -14 -22 0
-57 22 -52 6 1 8 -2 5 -8 -4 -7 2 -6 14 2 25 15 29 63 6 72 -14 5 -14 8 0 29
20 31 10 57 -21 57 -19 0 -24 5 -24 25 0 20 5 25 25 25 21 0 25 5 25 30 0 27
-3 30 -30 30 -25 0 -30 -4 -30 -24z m47 8 c-3 -3 -12 -4 -19 -1 -8 3 -5 6 6 6
11 1 17 -2 13 -5z m-92 -183 c-6 -5 -25 10 -25 20 0 5 6 4 14 -3 8 -7 12 -15
11 -17z m35 -271 c0 -5 -2 -10 -4 -10 -3 0 -8 5 -11 10 -3 6 -1 10 4 10 6 0
11 -4 11 -10z"/>
<path d="M320 1235 c-7 -9 -11 -18 -8 -20 3 -3 11 1 18 10 7 9 11 18 8 20 -3
3 -11 -1 -18 -10z"/>
<path d="M695 1223 l-18 -26 -18 24 c-10 13 -19 18 -19 12 0 -7 -5 -12 -11
-10 -6 1 -16 -6 -22 -15 -9 -14 -8 -21 6 -35 11 -12 17 -13 17 -5 0 7 5 10 10
7 6 -4 17 -1 25 5 30 25 46 -11 21 -45 -12 -16 -16 -17 -30 -6 -9 7 -13 18 -9
25 4 6 -1 5 -11 -3 -31 -25 -38 -49 -22 -73 8 -13 13 -35 11 -50 -2 -16 4 -33
15 -43 17 -16 19 -15 35 9 14 21 15 29 5 40 -6 8 -18 12 -25 9 -12 -4 -12 1 1
26 16 32 28 38 39 21 4 -6 10 -8 15 -5 9 6 7 -21 -3 -31 -12 -13 13 -44 30
-37 12 5 15 2 10 -10 -9 -25 -2 -21 17 8 16 24 16 27 -4 55 -12 17 -19 34 -15
40 6 9 -12 48 -30 63 -6 5 -3 7 7 3 23 -7 42 26 26 42 -7 7 -19 12 -27 12 -14
0 -14 1 -1 10 8 5 10 10 4 10 -7 0 -20 -12 -29 -27z m-45 -147 c0 -3 -4 -8
-10 -11 -5 -3 -10 -1 -10 4 0 6 5 11 10 11 6 0 10 -2 10 -4z"/>
<path d="M210 1225 c8 -11 15 -21 16 -23 1 -1 7 5 15 15 12 15 12 16 -2 11 -9
-4 -23 -1 -30 5 -9 9 -9 6 1 -8z"/>
<path d="M1340 1200 c0 -27 3 -30 30 -30 27 0 30 3 30 30 0 27 -3 30 -30 30
-27 0 -30 -3 -30 -30z m38 -13 c12 -3 10 -5 -5 -6 -18 -1 -23 4 -22 22 1 15 3
17 6 5 2 -9 12 -19 21 -21z"/>
<path d="M546 1198 c-21 -29 -20 -41 2 -62 18 -15 20 -15 36 3 19 21 15 51 -8
71 -11 8 -18 6 -30 -12z m34 -52 c0 -3 -4 -8 -10 -11 -5 -3 -10 -1 -10 4 0 6
5 11 10 11 6 0 10 -2 10 -4z"/>
<path d="M1160 1190 c0 -27 3 -30 30 -30 27 0 30 3 30 30 0 27 -3 30 -30 30
-27 0 -30 -3 -30 -30z"/>
<path d="M1512 1190 c0 -19 2 -27 5 -17 2 9 2 25 0 35 -3 9 -5 1 -5 -18z"/>
<path d="M1848 1193 c5 -21 7 -23 10 -9 2 10 0 22 -6 28 -6 6 -7 0 -4 -19z"/>
<path d="M145 1199 c-11 -17 1 -21 15 -4 8 9 8 15 2 15 -6 0 -14 -5 -17 -11z"/>
<path d="M1080 1180 c0 -27 3 -30 30 -30 27 0 30 3 30 30 0 27 -3 30 -30 30
-27 0 -30 -3 -30 -30z"/>
<path d="M1695 1199 l-30 -8 32 3 c28 2 33 -1 36 -23 3 -22 4 -21 6 7 0 17 -2
31 -6 31 -5 -1 -21 -5 -38 -10z"/>
<path d="M1242 1173 c2 -22 9 -29 31 -31 24 -3 27 0 27 27 0 28 -3 31 -31 31
-27 0 -30 -3 -27 -27z"/>
<path d="M1640 1166 c0 -19 -6 -26 -27 -29 -26 -4 -26 -4 5 -6 29 -1 32 2 32
29 0 17 -2 30 -5 30 -3 0 -5 -11 -5 -24z"/>
<path d="M1453 1173 c9 -2 23 -2 30 0 6 3 -1 5 -18 5 -16 0 -22 -2 -12 -5z"/>
<path d="M483 1149 c-25 -9 -30 -31 -10 -46 18 -14 38 -10 51 9 16 25 -11 49
-41 37z"/>
<path d="M1789 1122 c5 -34 6 -35 9 -8 2 16 0 32 -5 37 -5 5 -7 -7 -4 -29z"/>
<path d="M1312 1120 c4 -25 1 -29 -21 -32 -20 -2 -27 -9 -29 -30 -3 -25 0 -28
27 -28 28 0 31 3 31 30 0 25 4 30 25 30 21 0 25 5 25 30 0 27 -3 30 -31 30
-29 0 -31 -2 -27 -30z m-5 -46 c-3 -3 -12 -4 -19 -1 -8 3 -5 6 6 6 11 1 17 -2
13 -5z"/>
<path d="M1414 1120 c1 -20 6 -25 29 -26 24 -1 24 -1 3 3 -16 3 -26 12 -29 26
-3 18 -4 17 -3 -3z"/>
<path d="M173 1128 c-4 -7 -8 -20 -10 -28 -1 -10 3 -9 13 4 14 19 18 36 10 36
-3 0 -8 -6 -13 -12z"/>
<path d="M1960 1115 c0 -24 -3 -25 -57 -26 -32 -1 -46 -4 -31 -6 20 -3 28 -11
31 -31 l4 -27 2 28 c1 23 5 27 31 27 27 0 30 3 30 30 0 17 -2 30 -5 30 -3 0
-5 -11 -5 -25z"/>
<path d="M1114 1115 c-4 -8 -3 -26 0 -40 5 -18 2 -25 -9 -25 -10 0 -15 -10
-15 -31 0 -28 2 -30 33 -27 27 3 32 6 29 27 -2 13 -10 31 -18 38 -8 8 -13 24
-13 36 2 22 2 22 6 0 3 -15 12 -23 24 -23 14 0 19 7 19 30 0 25 -4 30 -25 30
-14 0 -28 -7 -31 -15z"/>
<path d="M1197 1123 c-4 -3 -7 -17 -7 -30 0 -19 5 -23 30 -23 27 0 30 3 30 30
0 25 -4 30 -23 30 -13 0 -27 -3 -30 -7z"/>
<path d="M1551 1108 c-1 -21 -7 -28 -28 -31 l-28 -4 28 -2 c29 -1 42 15 34 46
-3 12 -5 9 -6 -9z"/>
<path d="M539 1084 c-15 -19 -4 -44 20 -44 15 0 19 -5 16 -22 -3 -12 -9 -26
-15 -32 -13 -13 -13 -29 0 -21 5 3 7 0 4 -8 -5 -15 22 -44 33 -33 3 3 1 6 -5
6 -7 0 -12 5 -12 11 0 6 6 9 14 6 8 -3 20 0 26 8 8 10 5 20 -13 41 -20 23 -23
32 -14 51 17 37 -28 68 -54 37z"/>
<path d="M1571 1068 c2 -30 2 -30 6 -6 3 20 11 28 31 31 24 4 24 4 -5 6 -31 1
-33 -1 -32 -31z"/>
<path d="M1714 1092 c5 -8 66 -4 66 4 0 2 -16 4 -36 4 -19 0 -33 -4 -30 -8z"/>
<path d="M1371 1052 c0 -18 -5 -31 -10 -28 -19 12 -41 -7 -41 -35 0 -26 4 -29
30 -29 27 0 30 3 30 29 0 25 5 30 28 34 l27 4 -27 2 c-21 1 -28 7 -31 29 -4
25 -4 24 -6 -6z m-8 -79 c-7 -2 -19 -2 -25 0 -7 3 -2 5 12 5 14 0 19 -2 13 -5z"/>
<path d="M834 1045 c-9 -22 2 -41 25 -48 27 -7 48 27 30 49 -15 18 -48 18 -55
-1z"/>
<path d="M1462 1030 c0 -14 2 -19 5 -12 2 6 2 18 0 25 -3 6 -5 1 -5 -13z"/>
<path d="M1779 1037 c5 -5 19 -7 32 -5 20 3 19 5 -9 9 -20 3 -29 2 -23 -4z"/>
<path d="M1193 1033 c-7 -2 -13 -18 -13 -34 0 -26 4 -29 30 -29 25 0 30 -4 30
-25 0 -21 5 -25 29 -25 37 0 46 13 25 34 -11 12 -12 16 -2 16 10 0 10 3 -2 9
-16 11 -33 4 -25 -9 3 -5 1 -11 -4 -14 -5 -3 -12 11 -16 32 -8 45 -23 57 -52
45z"/>
<path d="M775 1010 c-9 -10 -15 -28 -13 -38 3 -11 -3 -30 -13 -43 -26 -33 -24
-47 8 -55 37 -10 61 21 36 48 -9 10 -13 19 -10 19 4 1 12 2 18 3 24 2 34 33
19 60 -16 31 -22 32 -45 6z"/>
<path d="M1591 995 c0 -11 2 -37 5 -57 6 -35 9 -38 38 -37 28 2 29 2 5 6 -23
4 -28 11 -36 56 -6 29 -11 43 -12 32z"/>
<path d="M1464 991 c5 -8 56 -3 56 5 0 2 -14 4 -31 4 -16 0 -28 -4 -25 -9z"/>
<path d="M1643 994 c3 -3 26 -6 52 -6 26 0 49 3 53 6 3 3 -21 6 -53 6 -32 0
-56 -3 -52 -6z"/>
<path d="M673 961 c-9 -14 -7 -22 9 -42 11 -13 16 -18 12 -10 -5 10 -3 13 9 8
22 -8 44 20 31 40 -14 23 -48 25 -61 4z"/>
<path d="M1066 952 c-9 -11 -16 -31 -15 -44 2 -13 -4 -34 -13 -47 -13 -19 -14
-28 -5 -48 9 -21 8 -27 -6 -34 -9 -6 -17 -19 -17 -29 0 -12 -7 -20 -16 -20
-10 0 -14 -6 -11 -14 3 -8 -2 -24 -12 -35 -15 -17 -21 -19 -29 -8 -7 7 -10 27
-8 44 3 17 -2 40 -9 50 -13 17 -14 17 -32 -1 -16 -18 -16 -18 0 -7 10 8 17 9
17 3 0 -6 -14 -21 -32 -33 -17 -13 -29 -18 -25 -12 9 14 -18 48 -32 39 -6 -4
-9 -12 -6 -17 13 -21 -7 -30 -28 -12 -19 17 -19 16 2 -15 18 -26 26 -31 37
-21 20 17 17 1 -7 -32 -16 -23 -18 -33 -9 -44 6 -7 17 -12 24 -9 9 4 13 -4 12
-24 -1 -17 -4 -28 -8 -25 -5 2 -8 -3 -8 -12 0 -11 6 -14 25 -9 17 4 25 2 25
-7 0 -10 3 -10 12 -1 8 8 8 15 -3 28 -11 14 -11 16 -1 10 8 -5 1 11 -14 35
-39 62 -30 109 21 109 18 0 21 -5 20 -32 -1 -18 -7 -34 -14 -36 -6 -2 -11 -8
-11 -14 0 -5 9 -6 20 -3 12 4 20 2 20 -5 0 -6 4 -9 9 -5 5 3 13 1 16 -5 9 -14
-14 -42 -27 -34 -6 4 -5 -3 1 -14 14 -26 33 -39 25 -18 -3 9 -1 16 5 16 6 0
11 -4 11 -10 0 -5 7 -7 15 -4 24 10 17 36 -20 78 -32 35 -50 65 -23 38 8 -8
17 -8 30 -1 10 6 28 7 38 4 22 -7 26 5 8 23 -9 9 -7 13 5 18 9 3 14 10 11 15
-3 5 2 9 11 9 9 0 13 -4 10 -10 -3 -5 -1 -10 5 -10 18 0 24 31 13 61 -9 24 -9
29 3 29 21 0 28 25 15 60 -5 17 -6 28 -1 25 4 -3 14 1 22 8 7 7 29 13 48 12
31 0 35 3 32 25 -1 13 -6 28 -11 33 -15 15 -51 -3 -51 -24 0 -18 -2 -18 -23 6
-22 27 -22 27 -41 7z"/>
<path d="M830 915 l-25 -27 22 -17 c14 -12 18 -22 13 -31 -4 -7 -6 -20 -3 -29
4 -13 3 -13 -5 -2 -6 8 -12 9 -16 3 -8 -14 12 -26 44 -26 16 0 26 6 28 18 2
10 0 16 -5 13 -11 -7 -11 38 0 49 11 12 8 27 -11 52 l-18 23 -24 -26z"/>
<path d="M1357 933 c-4 -3 -6 -18 -6 -32 1 -25 2 -25 9 4 6 24 8 26 9 8 0 -13
5 -23 10 -23 5 0 17 -3 27 -7 14 -5 16 -3 10 13 -5 10 -9 25 -9 32 0 13 -39
17 -50 5z"/>
<path d="M1433 933 c9 -2 25 -2 35 0 9 3 1 5 -18 5 -19 0 -27 -2 -17 -5z"/>
<path d="M1744 900 c1 -20 6 -25 29 -26 24 -1 24 -1 3 3 -16 3 -26 12 -29 26
-3 18 -4 17 -3 -3z"/>
<path d="M1206 902 c-4 -7 -4 -12 -1 -12 4 0 -1 -7 -10 -16 -20 -21 -7 -37 26
-32 19 2 24 10 26 33 1 17 0 24 -3 17 -5 -10 -9 -9 -18 4 -9 12 -15 14 -20 6z"/>
<path d="M1280 880 c0 -27 3 -30 30 -30 23 0 30 5 30 19 0 15 -6 19 -25 16
-34 -3 -32 13 3 18 25 4 25 4 -5 6 -30 1 -33 -2 -33 -29z"/>
<path d="M1843 903 c9 -2 23 -2 30 0 6 3 -1 5 -18 5 -16 0 -22 -2 -12 -5z"/>
<path d="M216 875 c-11 -8 -15 -15 -9 -15 6 0 16 7 23 15 16 19 11 19 -14 0z"/>
<path d="M510 880 c0 -6 7 -13 15 -17 24 -9 27 1 5 15 -13 8 -20 8 -20 2z"/>
<path d="M1445 882 c6 -4 -1 -19 -19 -37 -16 -16 -26 -25 -22 -18 3 6 1 15 -5
18 -6 4 -13 -3 -16 -16 -6 -22 -7 -22 -14 -3 -7 15 -8 13 -6 -11 2 -26 6 -30
32 -30 25 0 30 4 28 23 -2 19 2 22 37 22 40 0 54 15 25 26 -28 11 -15 24 24
24 36 0 40 -3 44 -27 l4 -28 2 27 c1 21 7 28 29 31 15 2 -13 5 -63 5 -49 1
-85 -2 -80 -6z m-38 -88 c-3 -3 -12 -4 -19 -1 -8 3 -5 6 6 6 11 1 17 -2 13 -5z"/>
<path d="M376 868 c3 -5 10 -6 15 -3 13 9 11 12 -6 12 -8 0 -12 -4 -9 -9z"/>
<path d="M680 858 c-8 -13 -14 -27 -15 -33 0 -5 -6 -21 -14 -34 -7 -13 -8 -20
-2 -17 7 5 9 1 5 -8 -3 -9 -11 -16 -17 -16 -22 0 5 -14 29 -15 33 -1 40 16 19
48 -14 22 -14 25 0 31 19 7 62 -9 67 -26 3 -7 -3 -19 -12 -28 -9 -8 -10 -11
-1 -5 12 8 12 7 3 -12 -7 -12 -17 -24 -24 -26 -10 -4 -10 -8 -1 -14 12 -9 13
-64 1 -56 -5 2 -8 -3 -8 -11 0 -10 9 -16 25 -16 25 0 25 0 8 -27 -17 -26 -17
-27 0 -14 22 17 22 8 1 -14 -16 -15 -16 -18 0 -33 16 -16 17 -16 11 0 -5 13
-2 15 14 11 26 -7 34 -29 15 -48 -20 -19 -11 -32 18 -29 13 1 26 3 31 3 4 1 7
8 7 17 0 8 -4 12 -10 9 -5 -3 -7 0 -4 8 3 8 -2 20 -11 27 -8 7 -15 20 -15 30
0 10 -7 23 -15 30 -9 7 -13 20 -10 27 3 8 -2 21 -10 29 -8 8 -12 21 -9 29 4 8
1 15 -5 15 -6 0 -11 5 -11 11 0 8 4 8 14 0 17 -14 31 2 19 22 -14 22 -14 47 1
41 7 -3 19 2 26 11 11 13 10 19 -4 34 -9 10 -16 24 -14 31 2 7 -4 15 -12 18
-8 2 -12 1 -8 -3 4 -5 3 -14 -3 -22 -9 -10 -8 -13 0 -13 7 0 9 -5 6 -10 -4 -7
-16 -2 -31 12 -27 26 -33 47 -6 27 14 -11 13 -10 -2 9 -24 27 -28 27 -46 0z
m10 -18 c0 -5 -5 -10 -11 -10 -5 0 -7 5 -4 10 3 6 8 10 11 10 2 0 4 -4 4 -10z
m100 -60 c0 -5 -4 -10 -10 -10 -5 0 -10 5 -10 10 0 6 5 10 10 10 6 0 10 -4 10
-10z"/>
<path d="M336 862 c-3 -5 1 -9 9 -9 8 0 12 4 9 9 -3 4 -7 8 -9 8 -2 0 -6 -4
-9 -8z"/>
<path d="M1110 830 c0 -27 3 -30 30 -30 27 0 30 3 30 30 0 27 -3 30 -30 30
-27 0 -30 -3 -30 -30z m38 -13 c12 -3 10 -5 -5 -6 -18 -1 -23 4 -22 22 1 15 3
17 6 5 2 -9 12 -19 21 -21z"/>
<path d="M1781 828 c2 -30 2 -30 6 -6 3 20 11 28 31 31 24 4 24 4 -5 6 -31 1
-33 -1 -32 -31z"/>
<path d="M1668 843 c7 -3 16 -2 19 1 4 3 -2 6 -13 5 -11 0 -14 -3 -6 -6z"/>
<path d="M1873 833 c9 -2 25 -2 35 0 9 3 1 5 -18 5 -19 0 -27 -2 -17 -5z"/>
<path d="M140 820 c-9 -6 -10 -10 -3 -10 6 0 15 5 18 10 8 12 4 12 -15 0z"/>
<path d="M405 820 c3 -5 11 -10 16 -10 6 0 7 5 4 10 -3 6 -11 10 -16 10 -6 0
-7 -4 -4 -10z"/>
<path d="M1217 818 c-9 -5 -17 -20 -17 -33 0 -21 5 -25 28 -25 16 0 31 3 35 6
10 10 -4 34 -22 35 -13 0 -12 2 3 8 16 6 17 9 5 13 -9 3 -23 2 -32 -4z m30
-44 c-3 -3 -12 -4 -19 -1 -8 3 -5 6 6 6 11 1 17 -2 13 -5z"/>
<path d="M1299 819 c-11 -7 -11 -9 -1 -9 10 0 9 -4 -2 -16 -21 -21 -12 -34 25
-34 24 0 29 4 29 25 0 28 -29 48 -51 34z"/>
<path d="M1505 819 c-11 -4 -14 -8 -7 -8 6 -1 12 -6 12 -12 0 -5 -4 -7 -10 -4
-5 3 -10 -1 -10 -10 0 -9 -7 -16 -17 -14 -45 4 -53 -1 -53 -31 0 -27 3 -30 29
-30 37 0 50 19 26 37 -17 12 -14 13 28 13 45 0 47 1 47 29 0 32 -15 42 -45 30z
m28 -46 c-7 -2 -19 -2 -25 0 -7 3 -2 5 12 5 14 0 19 -2 13 -5z m-70 -50 c-7
-2 -19 -2 -25 0 -7 3 -2 5 12 5 14 0 19 -2 13 -5z"/>
<path d="M1602 790 c0 -19 2 -27 5 -17 2 9 2 25 0 35 -3 9 -5 1 -5 -18z"/>
<path d="M480 796 c0 -2 7 -7 16 -10 8 -3 12 -2 9 4 -6 10 -25 14 -25 6z"/>
<path d="M579 782 c6 -12 16 -24 22 -28 8 -4 8 -1 0 14 -6 12 -16 24 -22 28
-8 4 -8 1 0 -14z"/>
<path d="M1942 775 c0 -16 2 -22 5 -12 2 9 2 23 0 30 -3 6 -5 -1 -5 -18z"/>
<path d="M1117 774 c-4 -4 -7 -17 -7 -28 0 -17 6 -21 30 -21 27 0 30 3 28 25
-3 25 -35 40 -51 24z m10 -26 c-3 -8 -6 -5 -6 6 -1 11 2 17 5 13 3 -3 4 -12 1
-19z"/>
<path d="M1547 739 c-23 -26 -15 -49 17 -49 32 0 39 12 25 44 -15 31 -19 32
-42 5z"/>
<path d="M1782 730 c0 -19 2 -27 5 -17 2 9 2 25 0 35 -3 9 -5 1 -5 -18z"/>
<path d="M1370 739 c0 -6 -7 -17 -15 -26 -20 -20 -10 -33 26 -33 26 0 29 3 28
33 -2 30 -2 30 -6 5 -3 -21 -10 -28 -26 -27 -17 1 -18 2 -4 6 18 5 25 53 7 53
-5 0 -10 -5 -10 -11z"/>
<path d="M1653 743 c9 -2 23 -2 30 0 6 3 -1 5 -18 5 -16 0 -22 -2 -12 -5z"/>
<path d="M395 732 c3 -3 -1 -12 -8 -21 -10 -14 -10 -14 4 -4 9 7 18 11 21 8 2
-3 5 1 5 8 0 8 -6 14 -14 14 -7 0 -11 -3 -8 -5z"/>
<path d="M1215 730 l30 -8 -27 -1 c-16 0 -28 -5 -28 -11 0 -5 -1 -13 -2 -16
-2 -4 12 -8 30 -9 30 -3 33 -1 30 24 -2 21 -9 26 -33 28 l-30 2 30 -9z"/>
<path d="M1279 729 c-10 -6 -11 -9 -1 -9 6 0 12 -5 12 -11 0 -5 -4 -7 -10 -4
-5 3 -10 -3 -10 -14 0 -17 6 -21 30 -21 26 0 30 3 30 29 0 31 -26 46 -51 30z"/>
<path d="M585 719 c-4 -6 -14 -8 -23 -4 -9 3 -13 3 -9 -1 4 -4 -2 -17 -12 -28
-24 -26 -16 -43 24 -47 24 -3 30 0 31 16 0 11 -4 26 -9 33 -6 8 -5 17 3 27 7
8 10 15 7 15 -3 0 -9 -5 -12 -11z m-30 -48 c-3 -6 -11 -11 -17 -11 -6 0 -6 6
2 15 14 17 26 13 15 -4z"/>
<path d="M635 708 c-16 -17 -16 -20 -2 -9 10 8 17 9 17 3 0 -6 -7 -15 -16 -20
-24 -13 -11 -28 23 -26 34 1 39 21 15 52 l-18 23 -19 -23z"/>
<path d="M210 716 c0 -2 8 -10 18 -17 15 -13 16 -12 3 4 -13 16 -21 21 -21 13z"/>
<path d="M1081 683 c-14 -31 -3 -46 30 -41 18 2 25 10 27 33 2 23 0 27 -7 15
-9 -13 -11 -13 -11 3 0 26 -25 20 -39 -10z"/>
<path d="M1460 670 c0 -27 3 -30 29 -30 36 0 46 13 26 33 -11 12 -12 17 -2 20
6 3 -3 6 -20 6 -30 1 -33 -2 -33 -29z m47 -16 c-3 -3 -12 -4 -19 -1 -8 3 -5 6
6 6 11 1 17 -2 13 -5z"/>
<path d="M1573 668 c0 -7 -4 -21 -8 -30 -6 -15 -2 -18 19 -18 14 0 29 0 34 0
4 0 7 12 7 28 0 22 -5 28 -26 30 -16 2 -26 -2 -26 -10z m44 -30 c-3 -7 -5 -2
-5 12 0 14 2 19 5 13 2 -7 2 -19 0 -25z"/>
<path d="M1777 673 c14 -3 23 -13 26 -29 4 -21 4 -21 3 3 -1 23 -6 28 -26 29
-20 1 -21 0 -3 -3z"/>
<path d="M1162 661 c-5 -3 -12 -17 -13 -31 -4 -22 0 -25 29 -28 30 -3 32 -1
32 26 0 30 -25 47 -48 33z m38 -31 c0 -14 -6 -20 -22 -19 -17 1 -19 2 -5 6 9
2 17 11 17 19 0 8 2 14 5 14 3 0 5 -9 5 -20z"/>
<path d="M1399 659 c-8 -5 -10 -9 -5 -9 5 0 3 -7 -4 -15 -17 -20 -4 -35 31
-35 22 0 29 5 29 20 0 11 -5 20 -11 20 -5 0 -8 4 -5 9 8 13 -18 21 -35 10z
m28 -45 c-3 -3 -12 -4 -19 -1 -8 3 -5 6 6 6 11 1 17 -2 13 -5z"/>
<path d="M644 625 c-20 -31 -13 -55 15 -48 12 3 21 1 21 -6 0 -6 -4 -11 -9
-11 -6 0 -8 -9 -6 -19 5 -24 -20 -35 -36 -15 -10 13 -14 12 -30 -2 -24 -22
-24 -46 0 -68 18 -16 20 -16 40 10 11 14 18 31 14 37 -4 6 -1 7 7 2 18 -11 60
-13 66 -3 3 4 1 8 -4 8 -6 0 -13 7 -16 16 -6 15 -4 15 11 3 17 -13 17 -13 1 6
-9 11 -18 27 -20 35 -2 8 -8 20 -15 28 -7 7 -10 19 -7 26 10 26 -15 27 -32 1z
m2 -132 c-7 -7 -26 7 -26 19 0 6 6 6 15 -2 9 -7 13 -15 11 -17z m-18 -24 c-2
-6 -8 -10 -13 -10 -5 0 -11 4 -13 10 -2 6 4 11 13 11 9 0 15 -5 13 -11z"/>
<path d="M1242 639 c3 -8 -2 -19 -11 -26 -21 -16 -2 -36 30 -31 27 3 40 38 15
38 -9 0 -15 5 -13 11 1 6 -4 14 -12 17 -8 3 -12 -1 -9 -9z"/>
<path d="M1322 628 c-5 -21 -6 -21 -13 -2 -7 15 -8 13 -6 -11 1 -23 7 -31 26
-33 33 -5 44 10 30 41 -15 33 -29 34 -37 5z"/>
<path d="M1030 620 c-9 -18 -8 -20 15 -20 23 0 24 2 15 20 -6 11 -13 20 -15
20 -2 0 -9 -9 -15 -20z"/>
<path d="M1853 633 c9 -2 23 -2 30 0 6 3 -1 5 -18 5 -16 0 -22 -2 -12 -5z"/>
<path d="M485 620 c-3 -5 -1 -10 4 -10 6 0 11 5 11 10 0 6 -2 10 -4 10 -3 0
-8 -4 -11 -10z"/>
<path d="M564 617 c-3 -9 -3 -20 0 -26 4 -5 1 -13 -5 -17 -8 -4 -9 -3 -5 4 4
8 2 10 -8 6 -12 -5 -11 -10 7 -30 24 -28 29 -30 21 -9 -4 10 0 15 11 15 10 0
13 -4 9 -12 -5 -9 -2 -9 9 1 19 15 23 36 5 25 -7 -5 -9 -2 -5 8 3 9 -3 24 -13
33 -18 16 -20 16 -26 2z"/>
<path d="M1503 623 c-7 -3 -13 -18 -13 -34 0 -26 4 -29 30 -29 26 0 30 3 30
29 0 29 -20 43 -47 34z m4 -45 c-3 -7 -5 -2 -5 12 0 14 2 19 5 13 2 -7 2 -19
0 -25z m33 22 c0 -5 -2 -10 -4 -10 -3 0 -8 5 -11 10 -3 6 -1 10 4 10 6 0 11
-4 11 -10z"/>
<path d="M1587 593 c-4 -3 -7 -17 -7 -30 0 -20 5 -23 36 -23 29 0 35 3 30 16
-3 9 -6 18 -6 20 0 2 -12 5 -27 5 l-28 1 30 8 c29 7 29 8 4 9 -14 0 -29 -2
-32 -6z"/>
<path d="M450 580 c0 -5 5 -10 10 -10 6 0 10 5 10 10 0 6 -4 10 -10 10 -5 0
-10 -4 -10 -10z"/>
<path d="M1096 574 c-9 -23 -8 -24 14 -24 11 0 20 2 20 4 0 12 -13 36 -20 36
-4 0 -11 -7 -14 -16z"/>
<path d="M1423 582 c-6 -4 -13 -18 -14 -32 -4 -22 0 -25 29 -28 30 -3 32 -2
31 30 0 27 -2 30 -9 13 -7 -16 -9 -17 -9 -3 -1 20 -13 29 -28 20z m24 -48 c-3
-3 -12 -4 -19 -1 -8 3 -5 6 6 6 11 1 17 -2 13 -5z"/>
<path d="M1761 563 c-1 -31 1 -33 32 -32 29 2 29 2 5 6 -20 3 -28 11 -31 31
-4 24 -4 24 -6 -5z"/>
<path d="M336 558 c3 -5 10 -6 15 -3 13 9 11 12 -6 12 -8 0 -12 -4 -9 -9z"/>
<path d="M1172 549 c-16 -25 -11 -32 16 -27 18 3 19 6 9 25 l-12 23 -13 -21z"/>
<path d="M1328 553 c6 -2 12 -9 12 -14 0 -6 -4 -7 -10 -4 -5 3 -10 -3 -10 -14
0 -17 6 -21 30 -21 27 0 30 3 30 30 0 27 -3 30 -32 29 -18 0 -27 -3 -20 -6z
m42 -13 c0 -5 -2 -10 -4 -10 -3 0 -8 5 -11 10 -3 6 -1 10 4 10 6 0 11 -4 11
-10z"/>
<path d="M370 546 c0 -2 8 -10 18 -17 15 -13 16 -12 3 4 -13 16 -21 21 -21 13z"/>
<path d="M1250 530 c-9 -18 -8 -20 15 -20 23 0 24 2 15 20 -6 11 -13 20 -15
20 -2 0 -9 -9 -15 -20z"/>
<path d="M169 523 c-13 -16 -12 -17 4 -4 16 13 21 21 13 21 -2 0 -10 -8 -17
-17z"/>
<path d="M1002 520 c-11 -18 -10 -20 18 -20 28 0 30 2 20 20 -6 11 -14 20 -18
20 -4 0 -13 -9 -20 -20z"/>
<path d="M1516 524 c-9 -23 -8 -24 14 -24 23 0 26 13 6 29 -11 9 -15 8 -20 -5z"/>
<path d="M205 521 c-3 -5 -2 -12 3 -15 5 -3 9 1 9 9 0 17 -3 19 -12 6z"/>
<path d="M510 505 c-22 -24 -23 -26 -7 -42 12 -13 17 -14 17 -4 0 9 8 11 25 7
30 -8 33 8 7 42 l-18 23 -24 -26z"/>
<path d="M773 515 c0 -8 4 -12 9 -9 5 3 6 10 3 15 -9 13 -12 11 -12 -6z"/>
<path d="M902 499 c-16 -26 -12 -31 22 -27 24 3 25 4 8 26 l-17 22 -13 -21z"/>
<path d="M1602 496 c-11 -24 -10 -26 13 -26 28 0 31 8 12 34 -12 17 -14 16
-25 -8z"/>
<path d="M1692 490 c-10 -26 -3 -34 22 -28 13 3 13 7 1 28 l-14 25 -9 -25z"/>
<path d="M1080 485 c-16 -19 -9 -28 18 -23 18 3 19 5 8 21 -12 15 -15 16 -26
2z"/>
<path d="M1762 475 c0 -16 2 -22 5 -12 2 9 2 23 0 30 -3 6 -5 -1 -5 -18z"/>
<path d="M720 475 c-6 -8 -8 -20 -4 -27 4 -7 4 -10 0 -6 -10 8 -36 -14 -30
-24 3 -4 16 -2 29 4 31 14 42 5 25 -19 -8 -10 -3 -7 11 6 16 16 20 25 12 28
-7 3 -13 9 -13 14 0 6 6 7 13 3 6 -4 3 2 -7 14 -23 26 -21 26 -36 7z"/>
<path d="M1421 473 c-7 -15 -4 -18 20 -19 24 -1 27 1 18 17 -12 24 -26 24 -38
2z"/>
<path d="M1156 455 c-16 -25 -16 -25 14 -25 29 0 30 2 19 23 -6 12 -13 23 -14
25 -1 1 -10 -9 -19 -23z"/>
<path d="M195 460 c-4 -6 -11 -7 -17 -4 -7 4 -8 2 -4 -5 6 -9 11 -9 22 0 14
11 18 19 10 19 -3 0 -8 -5 -11 -10z"/>
<path d="M1242 446 c-11 -24 -10 -26 13 -26 28 0 31 8 12 34 -12 17 -14 16
-25 -8z"/>
<path d="M1330 450 c-10 -18 -8 -20 20 -20 28 0 29 2 18 20 -7 11 -16 20 -20
20 -4 0 -12 -9 -18 -20z"/>
<path d="M639 443 c-12 -14 -12 -15 0 -9 9 6 12 4 9 -5 -3 -8 -10 -14 -17 -14
-6 0 -16 -7 -21 -15 -7 -10 -10 -11 -11 -2 -1 6 -3 17 -4 22 -1 6 -3 15 -4 22
-2 19 -26 -9 -26 -30 0 -11 -6 -16 -19 -14 -17 3 -18 2 -3 -12 8 -9 23 -13 31
-10 9 3 16 1 16 -5 0 -6 -5 -11 -12 -11 -6 0 -8 -3 -5 -7 4 -3 18 4 31 16 14
13 29 20 35 16 6 -3 11 -1 11 4 0 6 5 11 11 11 6 0 8 -7 5 -17 -7 -17 -6 -17
10 -1 10 10 13 21 8 30 -5 7 -9 19 -9 27 0 21 -20 24 -36 4z"/>
<path d="M962 440 c-11 -18 -10 -20 18 -20 28 0 30 2 20 20 -6 11 -14 20 -18
20 -4 0 -13 -9 -20 -20z"/>
<path d="M1513 440 c-17 -26 -17 -26 12 -26 28 0 30 5 13 29 -12 16 -14 16
-25 -3z"/>
<path d="M842 430 c-11 -18 -10 -20 13 -20 27 0 28 1 19 24 -8 21 -17 20 -32
-4z"/>
<path d="M1592 410 c-11 -18 -10 -20 18 -20 28 0 30 2 20 20 -6 11 -14 20 -18
20 -4 0 -13 -9 -20 -20z"/>
<path d="M1040 400 c-9 -18 -8 -20 15 -20 27 0 28 1 19 24 -8 22 -21 20 -34
-4z"/>
<path d="M1681 402 c-16 -29 -14 -32 14 -32 28 0 31 8 11 35 -13 18 -14 18
-25 -3z"/>
<path d="M782 389 c-17 -26 -15 -29 13 -29 28 0 30 7 12 32 -12 15 -14 15 -25
-3z"/>
<path d="M1410 390 c-10 -18 -8 -20 20 -20 28 0 30 2 20 20 -6 11 -15 20 -20
20 -5 0 -14 -9 -20 -20z"/>
<path d="M912 375 c-11 -24 -10 -25 19 -25 26 0 29 2 19 19 -16 31 -26 32 -38
6z"/>
<path d="M1131 381 c-15 -28 -14 -31 14 -31 28 0 30 7 10 33 -13 18 -14 18
-24 -2z"/>
<path d="M1320 381 c-14 -27 -9 -34 18 -29 19 3 19 5 8 27 l-13 24 -13 -22z"/>
<path d="M320 381 c0 -5 5 -13 10 -16 6 -3 10 -2 10 4 0 5 -4 13 -10 16 -5 3
-10 2 -10 -4z"/>
<path d="M1223 370 c-18 -27 -17 -30 12 -30 28 0 31 8 13 33 -12 16 -14 16
-25 -3z"/>
<path d="M1496 355 c-16 -25 -16 -25 14 -25 29 0 30 2 19 23 -6 12 -13 23 -14
25 -1 1 -10 -9 -19 -23z"/>
<path d="M400 359 c0 -4 8 -13 18 -20 9 -7 14 -9 10 -5 -4 5 -4 14 2 20 6 8 3
12 -11 12 -10 0 -19 -3 -19 -7z"/>
<path d="M706 345 c-16 -25 -16 -25 14 -25 29 0 30 2 19 23 -6 12 -13 23 -14
25 -1 1 -10 -9 -19 -23z"/>
<path d="M480 350 c0 -5 5 -10 11 -10 5 0 7 5 4 10 -3 6 -8 10 -11 10 -2 0 -4
-4 -4 -10z"/>
<path d="M996 338 c-16 -22 -16 -23 10 -26 34 -5 39 2 21 28 l-15 21 -16 -23z"/>
<path d="M632 325 c-11 -23 -10 -25 13 -25 28 0 30 7 11 32 -12 16 -14 16 -24
-7z"/>
<path d="M1581 336 c-17 -20 -10 -29 19 -24 19 3 19 5 8 21 -13 17 -15 17 -27
3z"/>
<path d="M552 316 c-11 -24 -10 -26 13 -26 28 0 31 8 12 34 -12 17 -14 16 -25
-8z"/>
<path d="M850 320 c-10 -18 -8 -20 20 -20 28 0 29 2 18 20 -7 11 -16 20 -20
20 -4 0 -12 -9 -18 -20z"/>
<path d="M1392 320 c-11 -18 -10 -20 13 -20 27 0 28 1 19 24 -8 21 -17 20 -32
-4z"/>
<path d="M1662 315 c-11 -23 -10 -25 14 -25 22 0 24 2 13 23 -6 12 -13 23 -14
25 -1 1 -7 -9 -13 -23z"/>
<path d="M1090 310 c-14 -26 -12 -29 17 -21 19 5 20 8 8 24 -13 18 -14 18 -25
-3z"/>
<path d="M1186 295 c-16 -25 -16 -25 14 -25 29 0 30 2 19 23 -6 12 -13 23 -14
25 -1 1 -10 -9 -19 -23z"/>
<path d="M1290 300 c-9 -18 -8 -20 15 -20 23 0 24 2 15 20 -6 11 -13 20 -15
20 -2 0 -9 -9 -15 -20z"/>
<path d="M780 280 c-10 -18 -8 -20 20 -20 28 0 30 2 20 20 -6 11 -15 20 -20
20 -5 0 -14 -9 -20 -20z"/>
<path d="M940 281 c-10 -19 -8 -21 16 -21 24 0 25 2 13 18 -7 9 -14 19 -15 20
-1 2 -7 -6 -14 -17z"/>
<path d="M1472 280 c-11 -18 -10 -20 13 -20 23 0 24 2 15 20 -6 11 -12 20 -13
20 -1 0 -8 -9 -15 -20z"/>
<path d="M380 281 c0 -5 7 -12 16 -15 14 -5 15 -4 4 9 -14 17 -20 19 -20 6z"/>
<path d="M712 255 c-11 -23 -10 -25 13 -25 28 0 30 7 11 32 -12 16 -14 16 -24
-7z"/>
<path d="M464 234 c-11 -33 -10 -34 18 -34 28 0 28 1 13 23 -8 13 -13 26 -9
29 3 3 2 8 -3 11 -5 3 -13 -10 -19 -29z"/>
<path d="M1040 251 c-14 -27 -9 -34 18 -29 19 3 19 5 8 27 l-13 24 -13 -22z"/>
<path d="M1362 249 c-17 -26 -15 -29 13 -29 28 0 30 7 12 32 -12 15 -14 15
-25 -3z"/>
<path d="M1550 250 c-9 -18 -8 -20 15 -20 23 0 24 2 15 20 -6 11 -13 20 -15
20 -2 0 -9 -9 -15 -20z"/>
<path d="M632 235 c-11 -23 -10 -25 13 -25 28 0 30 7 11 32 -12 16 -14 16 -24
-7z"/>
<path d="M550 231 c-14 -27 -9 -34 18 -29 19 3 19 5 8 27 l-13 24 -13 -22z"/>
<path d="M872 230 c-11 -18 -10 -20 13 -20 27 0 28 1 19 24 -8 21 -17 20 -32
-4z"/>
<path d="M1140 230 c-9 -18 -8 -20 15 -20 23 0 24 2 15 20 -6 11 -13 20 -15
20 -2 0 -9 -9 -15 -20z"/>
<path d="M1251 231 c-15 -28 -14 -31 14 -31 28 0 30 7 10 33 -13 18 -14 18
-24 -2z"/>
<path d="M802 196 c-11 -24 -10 -26 13 -26 28 0 31 8 12 34 -12 17 -14 16 -25
-8z"/>
<path d="M1430 200 c-9 -18 -8 -20 15 -20 27 0 28 1 19 24 -8 22 -21 20 -34
-4z"/>
<path d="M970 190 c-10 -18 -8 -20 20 -20 28 0 30 2 20 20 -6 11 -15 20 -20
20 -5 0 -14 -9 -20 -20z"/>
<path d="M723 165 c-10 -24 -9 -25 18 -25 29 0 29 0 13 25 -9 14 -17 25 -18
25 0 0 -6 -11 -13 -25z"/>
<path d="M1086 174 c-9 -23 -8 -24 14 -24 11 0 20 2 20 4 0 12 -13 36 -20 36
-4 0 -11 -7 -14 -16z"/>
<path d="M1200 171 c-14 -27 -9 -34 18 -29 19 3 19 5 8 27 l-13 24 -13 -22z"/>
<path d="M1316 174 c-9 -23 -8 -24 19 -24 23 0 24 2 15 20 -13 24 -26 26 -34
4z"/>
<path d="M642 150 c-11 -18 -10 -20 13 -20 23 0 24 2 15 20 -6 11 -12 20 -13
20 -1 0 -8 -9 -15 -20z"/>
<path d="M912 158 c-18 -18 -15 -28 8 -28 21 0 25 7 12 27 -6 10 -11 10 -20 1z"/>
<path d="M556 144 c-9 -23 -8 -24 19 -24 23 0 24 2 13 20 -15 24 -24 25 -32 4z"/>
<path d="M1390 135 c-16 -19 -9 -28 18 -23 18 3 19 5 8 21 -12 15 -15 16 -26
2z"/>
<path d="M832 115 c-11 -23 -10 -25 14 -25 22 0 24 2 13 23 -6 12 -13 23 -14
25 -1 1 -7 -9 -13 -23z"/>
<path d="M1023 120 c-17 -26 -17 -25 12 -28 28 -2 31 6 13 31 -12 16 -14 16
-25 -3z"/>
<path d="M1142 109 c-17 -26 -15 -29 13 -29 28 0 30 7 12 32 -12 15 -14 15
-25 -3z"/>
<path d="M1262 106 c-11 -24 -10 -26 13 -26 28 0 31 8 12 34 -12 17 -14 16
-25 -8z"/>
<path d="M751 91 c-15 -28 -14 -31 14 -31 28 0 30 7 10 33 -13 18 -14 18 -24
-2z"/>
<path d="M942 70 c-11 -18 -10 -20 18 -20 28 0 30 2 20 20 -6 11 -14 20 -18
20 -4 0 -13 -9 -20 -20z"/>
<path d="M1071 52 c-15 -28 -15 -29 14 -29 29 0 31 5 11 32 -13 18 -14 18 -25
-3z"/>
<path d="M1201 51 c-15 -28 -14 -31 14 -31 28 0 30 7 10 33 -13 18 -14 18 -24
-2z"/>
<path d="M866 35 c-16 -25 -16 -25 14 -25 29 0 30 2 19 23 -6 12 -13 23 -14
25 -1 1 -10 -9 -19 -23z"/>
</g>
</svg>
